<?xml version="1.0"?>
<svg width="512" height="512" xmlns="http://www.w3.org/2000/svg" xmlns:svg="http://www.w3.org/2000/svg">
 <g>
  <title>Layer 1</title>
  <path fill="none" id="svg_1" d="m256,464c22.778992,0 41.411011,-18.718994 41.411011,-41.600006l-82.823013,0c0,22.881012 18.632996,41.600006 41.412003,41.600006zm134.588989,-124.799988l0,-114.400009c0,-63.440002 -44.515991,-117.51799 -103.529999,-131.041l0,-14.559006c0,-17.681995 -13.457001,-31.199997 -31.059006,-31.199997s-31.05899,13.518002 -31.05899,31.199997l0,14.559006c-59.014999,13.522995 -103.530006,67.600983 -103.530006,131.041l0,114.400009l-41.410988,41.599976l0,20.799988l352,0l0,-20.799988l-41.411011,-41.599976z"/>
 </g>
</svg>